<?xml version="1.0" standalone="no"?>
<!DOCTYPE svg PUBLIC "-//W3C//DTD SVG 20010904//EN"
 "http://www.w3.org/TR/2001/REC-SVG-20010904/DTD/svg10.dtd">
<svg version="1.0" xmlns="http://www.w3.org/2000/svg"
 width="388.000000pt" height="388.000000pt" viewBox="0 0 388.000000 388.000000"
 preserveAspectRatio="xMidYMid meet">
<metadata>
Created by potrace 1.14, written by Peter Selinger 2001-2017
</metadata>
<g transform="translate(0.000000,388.000000) scale(0.100000,-0.100000)"
fill="#000000" stroke="none">
<path d="M0 1940 l0 -1940 1940 0 1940 0 0 1940 0 1940 -1940 0 -1940 0 0
-1940z m746 783 c9 -21 51 -126 95 -233 43 -107 121 -301 174 -430 53 -129
115 -283 138 -343 23 -59 46 -106 51 -104 9 3 64 137 352 857 58 146 111 271
116 278 8 9 66 12 247 10 l236 -3 0 -840 0 -840 -205 0 -205 0 -5 485 c-4 371
-8 479 -16 460 -6 -14 -75 -196 -153 -405 -78 -209 -156 -417 -173 -463 l-31
-82 -163 0 c-145 0 -164 2 -173 17 -5 10 -36 92 -69 183 -111 303 -281 750
-291 767 -7 13 -10 -133 -11 -474 l0 -493 -205 0 -205 0 0 845 0 845 240 0
240 0 16 -37z m2518 -322 c206 -61 369 -227 420 -428 20 -75 32 -235 22 -286
l-7 -37 -457 -2 -457 -3 2 -42 c3 -82 81 -180 160 -202 58 -16 143 -13 188 8
39 17 105 81 105 101 0 6 85 10 220 10 143 0 220 -4 220 -10 0 -24 -51 -132
-88 -188 -79 -116 -226 -214 -368 -248 -100 -23 -335 -15 -418 15 -183 65
-314 188 -380 355 -74 186 -74 417 0 600 81 199 241 326 479 376 70 16 282 4
359 -19z"/>
<path d="M2948 2086 c-52 -19 -82 -40 -112 -79 -29 -37 -59 -114 -50 -128 3
-5 117 -9 255 -9 l249 0 0 28 c-1 70 -72 159 -149 187 -53 18 -143 19 -193 1z"/>
</g>
</svg>
