<?xml version="1.0" encoding="UTF-8"?>
<svg xmlns="http://www.w3.org/2000/svg" version="1.1" viewBox="0 0 150 100">
  <!-- Generator: Adobe Illustrator 28.7.1, SVG Export Plug-In . SVG Version: 1.2.0 Build 142)  -->
  <g>
    <g id="stars">
      <g>
        <polygon points="114.3 29.1 114 28.5 113.4 28.7 113.8 28.2 113.6 27.7 114.1 27.9 114.5 27.5 114.4 28.1 115 28.4 114.4 28.5 114.3 29.1"/>
        <polygon points="109.8 29.9 109 30.8 109.7 31.8 108.6 31.4 107.8 32.3 107.9 31.1 106.8 30.6 107.9 30.4 108 29.1 108.6 30.2 109.8 29.9"/>
        <polygon points="118.4 50.8 118.5 51.8 119.5 52.1 118.5 52.5 118.6 53.6 117.9 52.7 116.9 53.1 117.5 52.2 116.8 51.4 117.9 51.7 118.4 50.8"/>
        <polygon points="118.6 30.5 119.4 33.1 122.1 33.1 119.9 34.7 120.6 37.2 118.5 35.6 116.3 37.1 117.2 34.6 115 33 117.7 33 118.6 30.5"/>
        <polygon points="101 33.9 101.1 37.6 104.7 38.6 101.2 39.9 101.4 43.6 99.1 40.7 95.6 42 97.7 38.9 95.4 36 98.9 37 101 33.9"/>
        <polygon points="81.1 52.7 81.2 56.2 84.6 57.1 81.3 58.4 81.4 61.9 79.3 59.1 76 60.4 77.9 57.4 75.7 54.7 79.1 55.6 81.1 52.7"/>
        <polygon points="126.5 45 126.4 45.4 126.6 45.7 126.3 45.6 126.1 45.9 126 45.6 125.6 45.5 126 45.3 125.9 44.9 126.2 45.2 126.5 45"/>
        <polygon points="133.9 31 133.7 31.5 134 31.8 133.5 31.7 133.3 32.2 133.2 31.7 132.8 31.6 133.2 31.4 133.1 30.9 133.5 31.3 133.9 31"/>
        <polygon points="109.7 50.2 109.6 50.5 109.8 50.8 109.4 50.8 109.3 51.1 109.2 50.7 108.8 50.7 109.1 50.5 109.1 50.1 109.4 50.4 109.7 50.2"/>
        <polygon points="105.7 60.3 105.6 60.6 105.8 60.7 105.5 60.7 105.4 60.9 105.4 60.7 105.1 60.6 105.3 60.5 105.3 60.3 105.5 60.5 105.7 60.3"/>
        <polygon points="111.4 40.3 111.3 40.6 111.4 40.7 111.2 40.7 111.1 40.9 111 40.7 110.8 40.6 111 40.5 111 40.3 111.2 40.5 111.4 40.3"/>
        <polygon points="137.5 45.6 137.3 45.8 137.5 46 137.3 46 137.2 46.2 137.1 45.9 136.9 45.9 137.1 45.8 137.1 45.5 137.2 45.7 137.5 45.6"/>
        <polygon points="89.8 45.8 89.6 46 89.8 46.2 89.6 46.1 89.5 46.4 89.4 46.1 89.2 46.1 89.4 46 89.4 45.7 89.5 45.9 89.8 45.8"/>
        <polygon points="91 35.5 90.8 35.7 91 35.9 90.8 35.8 90.7 36.1 90.6 35.8 90.4 35.8 90.6 35.7 90.6 35.4 90.7 35.6 91 35.5"/>
        <polygon points="78.8 37.8 78.7 37.9 78.8 38 78.7 38 78.6 38.1 78.6 38 78.5 38 78.6 37.9 78.6 37.8 78.7 37.9 78.8 37.8"/>
        <polygon points="82.2 41.6 82.8 43 84.3 42.8 83.2 43.8 83.9 45.2 82.6 44.4 81.5 45.4 81.8 44 80.5 43.3 81.9 43.1 82.2 41.6"/>
        <polygon points="129.1 36 128.8 36.6 129.3 36.9 128.7 36.9 128.4 37.4 128.3 36.9 127.7 36.8 128.2 36.5 128.1 35.9 128.5 36.3 129.1 36"/>
        <polygon points="91.2 55.2 91.1 55.6 91.4 55.9 91 55.8 90.8 56.2 90.7 55.8 90.2 55.8 90.6 55.5 90.5 55.1 90.9 55.4 91.2 55.2"/>
        <polygon points="105.8 60.3 105.7 60.6 105.9 60.9 105.6 60.8 105.5 61.1 105.4 60.8 105.1 60.8 105.3 60.6 105.3 60.3 105.5 60.5 105.8 60.3"/>
        <polygon points="123 27.9 122.9 28.2 123.1 28.4 122.8 28.3 122.7 28.6 122.6 28.3 122.4 28.3 122.6 28.2 122.5 27.9 122.7 28.1 123 27.9"/>
        <polygon points="110.8 36.5 110.7 36.8 111 37 110.6 37 110.4 37.3 110.4 37 110 37 110.3 36.8 110.2 36.4 110.5 36.6 110.8 36.5"/>
        <polygon points="65.8 49.2 65.6 49.5 65.9 49.8 65.5 49.7 65.4 50.1 65.3 49.7 64.9 49.7 65.2 49.5 65.2 49.1 65.4 49.4 65.8 49.2"/>
        <polygon points="67.1 55.6 67 57.7 68.9 58.5 66.9 59 66.7 61.1 65.6 59.3 63.6 59.8 64.9 58.2 63.8 56.4 65.8 57.2 67.1 55.6"/>
        <polygon points="54.2 61.9 55.2 62.7 56.4 62 55.9 63.3 56.9 64.1 55.5 64 55 65.3 54.7 64 53.4 63.9 54.5 63.2 54.2 61.9"/>
        <polygon points="70.1 67.3 70.5 68.6 71.9 68.5 70.8 69.4 71.3 70.6 70.2 69.9 69.1 70.7 69.5 69.4 68.3 68.7 69.7 68.6 70.1 67.3"/>
        <polygon points="88.7 66.2 89 67 89.9 67 89.2 67.6 89.5 68.5 88.7 67.9 88 68.5 88.3 67.6 87.5 67.1 88.4 67.1 88.7 66.2"/>
        <polygon points="58 70.6 58.1 70.9 58.3 70.8 58.1 71 58.2 71.2 58 71.1 57.8 71.3 57.9 71 57.6 70.9 57.9 70.9 58 70.6"/>
        <polygon points="44.5 69.3 44.6 69.7 45 69.6 44.7 69.9 44.8 70.2 44.5 70 44.2 70.2 44.3 69.9 44 69.7 44.4 69.7 44.5 69.3"/>
        <polygon points="45 60.8 45 61 45.2 61 45.1 61.1 45.1 61.3 45 61.2 44.8 61.3 44.9 61.1 44.7 61 44.9 61 45 60.8"/>
        <polygon points="48.1 53.8 48.2 54 48.5 54 48.3 54.2 48.4 54.5 48.1 54.3 47.9 54.5 48 54.2 47.7 54.1 48 54.1 48.1 53.8"/>
        <polygon points="46.7 39.1 46.1 40.5 47.2 41.4 45.7 41.3 45.1 42.6 44.8 41.2 43.4 41 44.6 40.3 44.4 38.9 45.4 39.8 46.7 39.1"/>
        <polygon points="53.3 44.4 53.4 45.2 54.2 45.3 53.5 45.7 53.7 46.5 53.1 46 52.4 46.3 52.7 45.6 52.2 45.1 53 45.2 53.3 44.4"/>
        <polygon points="62.8 45.8 62.7 46.2 63.1 46.5 62.6 46.5 62.4 47 62.2 46.5 61.7 46.5 62.2 46.2 62 45.8 62.4 46.1 62.8 45.8"/>
        <polygon points="65.7 49.1 65.5 49.4 65.8 49.6 65.5 49.6 65.4 49.9 65.3 49.6 65 49.6 65.2 49.4 65.1 49.1 65.4 49.3 65.7 49.1"/>
        <polygon points="61.4 55.5 61.2 56 61.6 56.3 61.1 56.3 60.9 56.9 60.7 56.3 60.2 56.3 60.6 56 60.5 55.4 60.9 55.8 61.4 55.5"/>
        <polygon points="27.8 43.9 27.7 44.3 28 44.5 27.6 44.5 27.5 44.9 27.3 44.5 26.9 44.5 27.3 44.2 27.2 43.9 27.5 44.1 27.8 43.9"/>
        <polygon points="25.6 60.2 26.1 61.1 27.1 61 26.3 61.7 26.7 62.6 25.9 62.1 25.1 62.8 25.3 61.8 24.4 61.3 25.4 61.2 25.6 60.2"/>
      </g>
    </g>
  </g>
</svg>